<svg viewBox="0 0 72 72" xmlns="http://www.w3.org/2000/svg"><g fill="none" stroke="#000" stroke-linejoin="round" stroke-width="2"><g stroke-linecap="round"><path d="m55.2766 23.4489q-.0459-.0708-.0924-.1411a23.0031 23.0031 0 0 0 -40.9689 20.0787c.0343.1023.1046.2972.14.3993"/><path d="m25.0368 56.22a23.5311 23.5311 0 0 0 21.1991.3755 23.3425 23.3425 0 0 0 12.4859-17.0227"/><path d="m51.58 34.554a11.5549 11.5549 0 0 1 1.2192 4.408c-9.8367 8.2722-22.6217 11.6222-24.6756 12.118a11.4345 11.4345 0 0 1 -2.6837-3.535l.0985-.0489s14.8516-3.3718 25.9023-12.7948z"/><path d="m52.799 38.962c.2974 4.6205-2.4688 9.3006-9.0418 12.5673-6.6357 3.2978-12.1214 2.6407-15.6335-.4493 2.0538-.496 14.8388-3.8459 24.6753-12.118z"/></g><path d="m67.6926 32.9089a4.2419 4.2419 0 0 1 -5.3735 2.6717c-3.9838-1.3386-6.68-6.6869-6.7069-6.74.213-.0912 5.4464-2.637 9.41-1.3052a4.241 4.241 0 0 1 2.6706 5.3737z"/><path d="m14.395 59.3977a4.2421 4.2421 0 0 1 -2.6718-5.3736c1.3387-3.9837 6.6869-6.68 6.74-6.7068.0912.213 2.6369 5.4464 1.3052 9.41a4.2411 4.2411 0 0 1 -5.3737 2.6707z"/><path d="m22.478 33.13 7.685.663-4.235 6.279" stroke-linecap="round"/><path d="m41.878 23.488-4.112 6.526 7.562.416" stroke-linecap="round"/></g></svg>